<svg id="Layer_1" data-name="Layer 1" xmlns="http://www.w3.org/2000/svg" viewBox="0 0 1504.8 201.21"><defs><style>.cls-1{fill:none;stroke:#000;stroke-miterlimit:10;stroke-width:8px;}</style></defs><title>Animated</title><path class="cls-1" d="M75.18,204.26l6.94,37H93.34L123.62,77h-1.1L92.79,240.58H82.55L52.61,77.07h-1.1L75,203.59" transform="translate(-46.7 -47.42)"/><path class="cls-1" d="M154.22,248.07V152.63h72.11v88.74H227V95.52a43.8,43.8,0,0,0-8.37-9.16,44,44,0,0,0-56.81,0,50.46,50.46,0,0,0-8.37,9.16V248.07M226.33,152H154.22V95.74l.88-1.23c8.7-11.85,20.48-17.88,35.12-17.88s26.31,6,35.12,17.88l1,1.23Z" transform="translate(-46.7 -47.42)"/><path class="cls-1" d="M257.71,221.58a43.8,43.8,0,0,0,8.37,9.16,42.82,42.82,0,0,0,28.62,10.51h36.88v-.67H294.69c-14.75,0-26.64-6-35.34-18l-.88-1.23V77.07h-.77Z" transform="translate(-46.7 -47.42)"/><path class="cls-1" d="M352.82,241.37h73.87v-.67H353.48V152.07h52.4v-.67h-52.4V97.08l.88-1.23c8.81-12,20.7-18,35.34-18h34.57v-.78H389.59a42.74,42.74,0,0,0-28.51,10.51,47.66,47.66,0,0,0-8.37,9.28V241.37Z" transform="translate(-46.7 -47.42)"/><path class="cls-1" d="M530.61,248V95.52a43.8,43.8,0,0,0-8.37-9.16,44,44,0,0,0-56.81,0,50.46,50.46,0,0,0-8.37,9.16V241.37h.66V95.74l.88-1.23c8.7-11.85,20.48-17.88,35.12-17.88s26.31,6,35.12,17.88l1,1.23V248" transform="translate(-46.7 -47.42)"/><path class="cls-1" d="M590.72,248V77.74h36.22v-.67H553.51v.67h36.66V248" transform="translate(-46.7 -47.42)"/><path class="cls-1" d="M650.61,248V77.07h-.66V248" transform="translate(-46.7 -47.42)"/><path class="cls-1" d="M752.44,248.63V95.52a43.8,43.8,0,0,0-8.37-9.16,44,44,0,0,0-56.81,0,50.45,50.45,0,0,0-8.37,9.16V241.37h.66V95.74l.88-1.23c8.7-11.85,20.48-17.88,35.12-17.88s26.31,6,35.12,17.88l1,1.23V248.63" transform="translate(-46.7 -47.42)"/><path class="cls-1" d="M858,221.58a43.28,43.28,0,0,0,8.26,9.16,42.82,42.82,0,0,0,28.62,10.51h36.88v-.67H894.9c-14.75,0-26.64-6-35.34-18l-.88-1.23V77.07H858V221.58Z" transform="translate(-46.7 -47.42)"/><path class="cls-1" d="M954.34,248.18V152.51h72.11v88.85h.66V95.52a47,47,0,0,0-8.37-9.16,44,44,0,0,0-56.81,0,50.45,50.45,0,0,0-8.37,9.16V248.18M1026.45,152H954.34V95.74l.88-1.23c8.7-11.85,20.48-17.88,35.12-17.88s26.31,6,35.12,17.88l.88,1.23.11,56.22Z" transform="translate(-46.7 -47.42)"/><path class="cls-1" d="M1057.94,223.15a46.18,46.18,0,0,0,8.26,9.16,42.25,42.25,0,0,0,28.18,10.28h.11a42,42,0,0,0,28.18-10.28,38.59,38.59,0,0,0,5.17-5.25l-.55-.22a41.37,41.37,0,0,1-32.81,15.09h-.11c-14.53-.11-25.1-6.82-35-17.77l-.88-1.23-.11-127.52.88-1.23c8.7-11.85,20.48-17.77,35-17.77,13.32,0,24.44,5.14,32.92,15.09l.55-.22a46.29,46.29,0,0,0-5.17-5.25A44.07,44.07,0,0,0,1066,86a43.28,43.28,0,0,0-8.26,9.16l.22,128Z" transform="translate(-46.7 -47.42)"/><path class="cls-1" d="M1234.63,248.3l-.22-171.22h-.66v91.2L1226,161.9a42.71,42.71,0,0,0-28.62-10.39,43.28,43.28,0,0,0-28.62,10.39l-7.71,6.37V77.19h-.66V241.37h.66V171.51l1-1.23c8.81-12,20.7-18,35.34-18s26.53,6,35.34,18l1,1.23.22,76.89" transform="translate(-46.7 -47.42)"/><path class="cls-1" d="M1264.68,241.37h73.87v-.67h-73.21V152.07h52.4v-.67h-52.4V97.08l.88-1.23c8.81-12,20.7-18,35.34-18h34.57v-.78h-34.68a42.74,42.74,0,0,0-28.51,10.51,47.65,47.65,0,0,0-8.37,9.28l.11,144.51Z" transform="translate(-46.7 -47.42)"/><path class="cls-1" d="M1443.8,248.18l.22-60.91-.33-3.24a45.09,45.09,0,0,0-10-24.36c-1.21-1.45-2.64-2.91-4.07-4.36l-3.74-3.58,3.85-3.46a35.13,35.13,0,0,0,4.4-4.69l.11-.11a45.82,45.82,0,0,0,0-58,47.47,47.47,0,0,0-9.14-8.49h-55.59V241.26h.66V152h54.38l1.21,1c11.56,8.94,17.5,21,17.5,35.76l-.22,59.46m-17.83-96.9h-55V77.86H1425l1.21.89c11.78,8.94,17.72,21,17.72,35.88s-5.83,26.71-17.5,35.65Z" transform="translate(-46.7 -47.42)"/><path class="cls-1" d="M1473.63,241.37h73.87v-.67h-73.21V152.07h52.4v-.67h-52.4V97.08l.88-1.23c8.81-12,20.7-18,35.34-18h34.57v-.78h-34.57A42.74,42.74,0,0,0,1482,87.58a47.65,47.65,0,0,0-8.37,9.28Z" transform="translate(-46.7 -47.42)"/><line class="cls-1" x1="1425.94" y1="16.24" x2="1501.79" y2="3.95"/></svg>